<?xml version="1.0" encoding="UTF-8" standalone="no"?>
<!-- Created with Inkscape (http://www.inkscape.org/) -->

<svg
   xmlns:dc="http://purl.org/dc/elements/1.1/"
   xmlns:cc="http://creativecommons.org/ns#"
   xmlns:rdf="http://www.w3.org/1999/02/22-rdf-syntax-ns#"
   xmlns:svg="http://www.w3.org/2000/svg"
   xmlns="http://www.w3.org/2000/svg"
   xmlns:sodipodi="http://sodipodi.sourceforge.net/DTD/sodipodi-0.dtd"
   xmlns:inkscape="http://www.inkscape.org/namespaces/inkscape"
   width="210mm"
   height="297mm"
   viewBox="0 0 744.09448819 1052.3622047"
   id="svg6321"
   version="1.1"
   inkscape:version="0.91 r13725"
   sodipodi:docname="DFTSetup2.svg">
  <defs
     id="defs6323">
    <clipPath
       id="clipPath5927"
       clipPathUnits="userSpaceOnUse">
      <path
         inkscape:connector-curvature="0"
         id="path5929"
         d="m 160.81744,52.918104 55.14286,0 0,51.714286 -54.85715,0 z"
         style="fill:none;fill-rule:evenodd;stroke:#000000;stroke-width:0.80000001px;stroke-linecap:butt;stroke-linejoin:miter;stroke-opacity:1" />
    </clipPath>
    <clipPath
       id="clipPath3490-9"
       clipPathUnits="userSpaceOnUse">
      <path
         inkscape:connector-curvature="0"
         id="path3492-3"
         d="m 0,186.355 415.669,0 L 415.669,0 0,0 0,186.355 Z" />
    </clipPath>
    <clipPath
       clipPathUnits="userSpaceOnUse"
       id="clipPath7225">
      <path
         d="m 0,186.355 415.669,0 L 415.669,0 0,0 0,186.355 Z"
         id="path7227"
         inkscape:connector-curvature="0" />
    </clipPath>
  </defs>
  <sodipodi:namedview
     id="base"
     pagecolor="#ffffff"
     bordercolor="#666666"
     borderopacity="1.0"
     inkscape:pageopacity="0.0"
     inkscape:pageshadow="2"
     inkscape:zoom="1.979899"
     inkscape:cx="439.47886"
     inkscape:cy="520"
     inkscape:document-units="px"
     inkscape:current-layer="layer1"
     showgrid="true"
     inkscape:window-width="1920"
     inkscape:window-height="1001"
     inkscape:window-x="-9"
     inkscape:window-y="-9"
     inkscape:window-maximized="1">
    <inkscape:grid
       type="xygrid"
       id="grid4226" />
  </sodipodi:namedview>
  <metadata
     id="metadata6326">
    <rdf:RDF>
      <cc:Work
         rdf:about="">
        <dc:format>image/svg+xml</dc:format>
        <dc:type
           rdf:resource="http://purl.org/dc/dcmitype/StillImage" />
        <dc:title></dc:title>
      </cc:Work>
    </rdf:RDF>
  </metadata>
  <g
     inkscape:label="Ebene 1"
     inkscape:groupmode="layer"
     id="layer1">
    <rect
       y="425.78256"
       x="57.035709"
       height="39.285713"
       width="147.85715"
       id="rect3336"
       style="display:inline;fill:#d40000;fill-rule:evenodd;stroke:#000000;stroke-width:1px;stroke-linecap:butt;stroke-linejoin:miter;stroke-opacity:1" />
    <text
       sodipodi:linespacing="120%"
       id="text4144"
       y="452.92545"
       x="129.91064"
       style="font-style:normal;font-variant:normal;font-weight:normal;font-stretch:normal;font-size:20px;line-height:120.00000477%;font-family:sans-serif;-inkscape-font-specification:'sans-serif, Normal';text-align:center;letter-spacing:0px;word-spacing:0px;writing-mode:lr-tb;text-anchor:middle;display:inline;fill:#000000;fill-opacity:1;stroke:none;stroke-width:1px;stroke-linecap:butt;stroke-linejoin:miter;stroke-opacity:1;"
       xml:space="preserve"><tspan
         style="font-style:normal;font-variant:normal;font-weight:normal;font-stretch:normal;font-size:22.5px;line-height:120.00000477%;font-family:sans-serif;-inkscape-font-specification:'sans-serif, Normal';text-align:center;writing-mode:lr-tb;text-anchor:middle;"
         y="452.92545"
         x="67.749992"
         id="tspan4146"
         sodipodi:role="line">Ti:Sa-Laser</tspan></text>
    <rect
       y="401.06827"
       x="516.60718"
       height="117.14286"
       width="163"
       id="rect4225"
       style="display:inline;fill:#999999;fill-opacity:1;stroke:#000000;stroke-width:2;stroke-miterlimit:4;stroke-dasharray:none;stroke-opacity:1" />
    <path
       inkscape:connector-curvature="0"
       id="path5619"
       d="m 204.89285,445.42544 254.34519,0"
       style="display:inline;fill:none;fill-rule:evenodd;stroke:#000000;stroke-width:3.38100004;stroke-linecap:butt;stroke-linejoin:miter;stroke-miterlimit:4;stroke-dasharray:none;stroke-opacity:1" />
    <path
       sodipodi:open="true"
       d="m 455.33025,440.97281 a 7.4999995,7.4999986 0 0 1 10.45789,-1.74197 7.4999995,7.4999986 0 0 1 1.75108,10.45637 7.4999995,7.4999986 0 0 1 -10.45485,1.76018 7.4999995,7.4999986 0 0 1 -1.76928,-10.4533"
       sodipodi:end="3.7588883"
       sodipodi:start="3.7623714"
       sodipodi:ry="7.4999986"
       sodipodi:rx="7.4999995"
       sodipodi:cy="445.33533"
       sodipodi:cx="461.43094"
       sodipodi:type="arc"
       id="path5629"
       style="display:inline;fill:#0000ff;fill-opacity:1;fill-rule:nonzero;stroke-linejoin:round" />
    <path
       inkscape:connector-curvature="0"
       id="path5633"
       d="m 229.74997,424.49686 0,42.44518 0,0"
       style="display:inline;fill:none;fill-rule:evenodd;stroke:#000000;stroke-width:3;stroke-linecap:butt;stroke-linejoin:miter;stroke-opacity:1;stroke-miterlimit:4;stroke-dasharray:none" />
    <path
       inkscape:connector-curvature="0"
       id="path5633-1"
       d="m 263.0357,424.26664 0,42.44518 0,0"
       style="display:inline;fill:none;fill-rule:evenodd;stroke:#000000;stroke-width:3;stroke-linecap:butt;stroke-linejoin:miter;stroke-miterlimit:4;stroke-dasharray:none;stroke-opacity:1" />
    <path
       inkscape:connector-curvature="0"
       id="path5633-1-7"
       d="m 341.47646,429.9113 32.62451,32.62525 0,0"
       style="display:inline;fill:none;fill-rule:evenodd;stroke:#000000;stroke-width:3;stroke-linecap:butt;stroke-linejoin:miter;stroke-miterlimit:4;stroke-dasharray:none;stroke-opacity:1" />
    <path
       sodipodi:nodetypes="cc"
       inkscape:connector-curvature="0"
       id="path5667"
       d="m 356.96427,445.49325 0.71429,144.57001"
       style="display:inline;fill:none;fill-rule:evenodd;stroke:#000000;stroke-width:3.38100004;stroke-linecap:butt;stroke-linejoin:round;stroke-miterlimit:4;stroke-dasharray:none;stroke-opacity:1" />
    <rect
       y="434.81512"
       x="283.94684"
       height="19.599812"
       width="43.866222"
       id="rect5669"
       style="display:inline;fill:#ffffff;fill-opacity:1;fill-rule:nonzero;stroke:#000000;stroke-width:1.5;stroke-linejoin:round;stroke-miterlimit:4;stroke-dasharray:none;stroke-opacity:1" />
    <g
       transform="matrix(1.8510236,0,0,-1.7550145,436.25399,593.47204)"
       id="g3534">
      <path
         inkscape:connector-curvature="0"
         id="path3536"
         style="fill:#666d6c;fill-opacity:1;fill-rule:nonzero;stroke:none"
         d="m -1.0804833,-2.2791834 c 0,-0.688 -0.15,-1.246 -0.335,-1.246 l -33.0289997,0 c -0.185,0 -0.335,0.558 -0.335,1.246 l 0,37.6879994 c 0,0.689 0.15,1.246 0.335,1.246 l 33.0289997,0 c 0.185,0 0.335,-0.557 0.335,-1.246 l 0,-37.6879994 z" />
    </g>
    <g
       transform="matrix(1.8510236,0,0,-1.7550145,434.39593,595.4982)"
       id="g3538">
      <path
         inkscape:connector-curvature="0"
         id="path3540"
         style="fill:#e8e8e7;fill-opacity:1;fill-rule:nonzero;stroke:none"
         d="m 0,0 c 0,-0.688 -0.15,-1.246 -0.335,-1.246 l -33.029,0 c -0.185,0 -0.335,0.558 -0.335,1.246 l 0,37.688 c 0,0.688 0.15,1.246 0.335,1.246 l 33.029,0 C -0.15,38.934 0,38.376 0,37.688 L 0,0 Z" />
    </g>
    <g
       transform="matrix(1.8510236,0,0,-1.7550145,434.39593,595.4982)"
       id="g3542">
      <path
         inkscape:connector-curvature="0"
         id="path3544"
         style="fill:none;stroke:#3c3b3c;stroke-width:1.87605965;stroke-linecap:butt;stroke-linejoin:miter;stroke-miterlimit:10;stroke-dasharray:none;stroke-opacity:1"
         d="m 0,0 c 0,-0.688 -0.15,-1.246 -0.335,-1.246 l -33.029,0 c -0.185,0 -0.335,0.558 -0.335,1.246 l 0,37.688 c 0,0.688 0.15,1.246 0.335,1.246 l 33.029,0 C -0.15,38.934 0,38.376 0,37.688 L 0,0 Z" />
    </g>
    <g
       transform="matrix(1.8510236,0,0,-1.7550145,427.64728,564.15066)"
       id="g3546">
      <path
         inkscape:connector-curvature="0"
         id="path3548"
         style="fill:#f0ed1b;fill-opacity:1;fill-rule:nonzero;stroke:none"
         d="m 0,0 c 0,-8.29 -2.272,-15.011 -5.076,-15.011 -2.803,0 -5.075,6.721 -5.075,15.011 0,8.29 2.272,15.011 5.075,15.011 C -2.272,15.011 0,8.29 0,0" />
    </g>
    <g
       transform="matrix(1.8510236,0,0,-1.7550145,427.64728,564.15066)"
       id="g3550">
      <path
         inkscape:connector-curvature="0"
         id="path3552"
         style="fill:none;stroke:#201d1c;stroke-width:1.87605965;stroke-linecap:butt;stroke-linejoin:miter;stroke-miterlimit:10;stroke-dasharray:none;stroke-opacity:1"
         d="m 0,0 c 0,-8.29 -2.272,-15.011 -5.076,-15.011 -2.803,0 -5.075,6.721 -5.075,15.011 0,8.29 2.272,15.011 5.075,15.011 C -2.272,15.011 0,8.29 0,0 Z" />
    </g>
    <g
       transform="matrix(1.8510236,0,0,-1.7550145,422.9877,563.80299)"
       id="g3554">
      <path
         inkscape:connector-curvature="0"
         id="path3556"
         style="fill:#e8e8e7;fill-opacity:1;fill-rule:nonzero;stroke:none"
         d="m 0,0 c 0,-6.262 -1.205,-11.339 -2.693,-11.339 -1.487,0 -2.692,5.077 -2.692,11.339 0,6.262 1.205,11.339 2.692,11.339 C -1.205,11.339 0,6.262 0,0" />
    </g>
    <g
       transform="matrix(1.8510236,0,0,-1.7550145,422.9877,563.80299)"
       id="g3558">
      <path
         style="fill:none;stroke:#201d1c;stroke-width:1.69068611;stroke-linecap:butt;stroke-linejoin:miter;stroke-miterlimit:10;stroke-dasharray:none;stroke-opacity:1"
         d="m 384.39648,196.19727 c -2.75247,0 -4.98437,8.91049 -4.98437,19.90039 0,10.9899 2.2319,19.89843 4.98437,19.89843 2.75433,0 4.98438,-8.90853 4.98438,-19.89843 0,-10.9899 -2.23005,-19.90039 -4.98438,-19.90039 z"
         transform="matrix(0.54024163,0,0,-0.56979586,-210.35959,123.13113)"
         id="path3560"
         inkscape:connector-curvature="0" />
    </g>
    <g
       transform="matrix(1.8510236,0,0,-1.7550145,413.52434,563.5171)"
       id="g3562">
      <path
         inkscape:connector-curvature="0"
         id="path3564"
         style="fill:#f0ed1b;fill-opacity:1;fill-rule:nonzero;stroke:none"
         d="m 0,0 c 0,-8.29 -2.272,-15.011 -5.076,-15.011 -2.803,0 -5.075,6.721 -5.075,15.011 0,8.29 2.272,15.011 5.075,15.011 C -2.272,15.011 0,8.29 0,0" />
    </g>
    <g
       transform="matrix(1.8510236,0,0,-1.7550145,413.52434,563.5171)"
       id="g3566">
      <path
         inkscape:connector-curvature="0"
         id="path3568"
         style="fill:none;stroke:#201d1c;stroke-width:1.87605965;stroke-linecap:butt;stroke-linejoin:miter;stroke-miterlimit:10;stroke-dasharray:none;stroke-opacity:1"
         d="m 0,0 c 0,-8.29 -2.272,-15.011 -5.076,-15.011 -2.803,0 -5.075,6.721 -5.075,15.011 0,8.29 2.272,15.011 5.075,15.011 C -2.272,15.011 0,8.29 0,0 Z" />
    </g>
    <g
       transform="matrix(1.8510236,0,0,-1.7550145,397.70216,563.26262)"
       id="g3570">
      <path
         inkscape:connector-curvature="0"
         id="path3572"
         style="fill:#f0ed1b;fill-opacity:1;fill-rule:nonzero;stroke:none"
         d="m 0,0 c 0,-8.29 -2.272,-15.011 -5.076,-15.011 -2.803,0 -5.076,6.721 -5.076,15.011 0,8.29 2.273,15.011 5.076,15.011 C -2.272,15.011 0,8.29 0,0" />
    </g>
    <g
       transform="matrix(1.8510236,0,0,-1.7550145,397.70216,563.26262)"
       id="g3574">
      <path
         inkscape:connector-curvature="0"
         id="path3576"
         style="fill:none;stroke:#201d1c;stroke-width:1.87605965;stroke-linecap:butt;stroke-linejoin:miter;stroke-miterlimit:10;stroke-dasharray:none;stroke-opacity:1"
         d="m 0,0 c 0,-8.29 -2.272,-15.011 -5.076,-15.011 -2.803,0 -5.076,6.721 -5.076,15.011 0,8.29 2.273,15.011 5.076,15.011 C -2.272,15.011 0,8.29 0,0 Z" />
    </g>
    <g
       transform="matrix(1.8510236,0,0,-1.7550145,392.87839,563.38617)"
       id="g3578">
      <path
         inkscape:connector-curvature="0"
         id="path3580"
         style="fill:#e8e8e7;fill-opacity:1;fill-rule:nonzero;stroke:none"
         d="m 0,0 c 0,-6.262 -1.205,-11.339 -2.693,-11.339 -1.487,0 -2.692,5.077 -2.692,11.339 0,6.262 1.205,11.339 2.692,11.339 C -1.205,11.339 0,6.262 0,0" />
    </g>
    <g
       transform="matrix(1.8510236,0,0,-1.7550145,392.87839,563.38617)"
       id="g3582">
      <path
         inkscape:connector-curvature="0"
         id="path3584"
         style="fill:none;stroke:#201d1c;stroke-width:0.93802983;stroke-linecap:butt;stroke-linejoin:miter;stroke-miterlimit:10;stroke-dasharray:none;stroke-opacity:1"
         d="m 0,0 c 0,-6.262 -1.205,-11.339 -2.693,-11.339 -1.487,0 -2.692,5.077 -2.692,11.339 0,6.262 1.205,11.339 2.692,11.339 C -1.205,11.339 0,6.262 0,0 Z" />
    </g>
    <g
       transform="matrix(1.8510236,0,0,-1.7550145,408.59396,563.63591)"
       id="g3586">
      <path
         inkscape:connector-curvature="0"
         id="path3588"
         style="fill:#e8e8e7;fill-opacity:1;fill-rule:nonzero;stroke:none"
         d="m 0,0 c 0,-6.262 -1.205,-11.339 -2.693,-11.339 -1.487,0 -2.692,5.077 -2.692,11.339 0,6.262 1.205,11.339 2.692,11.339 C -1.205,11.339 0,6.262 0,0" />
    </g>
    <g
       transform="matrix(1.8510236,0,0,-1.7550145,408.59396,563.63591)"
       id="g3590">
      <path
         inkscape:connector-curvature="0"
         id="path3592"
         style="fill:none;stroke:#201d1c;stroke-width:0.93802983;stroke-linecap:butt;stroke-linejoin:miter;stroke-miterlimit:10;stroke-dasharray:none;stroke-opacity:1"
         d="m 0,0 c 0,-6.262 -1.205,-11.339 -2.693,-11.339 -1.487,0 -2.692,5.077 -2.692,11.339 0,6.262 1.205,11.339 2.692,11.339 C -1.205,11.339 0,6.262 0,0 Z" />
    </g>
    <g
       transform="matrix(1.8510236,0,0,-1.7550145,356.96428,589.53993)"
       id="g3594">
      <path
         inkscape:connector-curvature="0"
         id="path3596"
         style="fill:none;stroke:#201d1c;stroke-width:1.87585318;stroke-linecap:butt;stroke-linejoin:round;stroke-miterlimit:10;stroke-dasharray:none;stroke-opacity:1"
         d="M 0,0 16.56,0" />
    </g>
    <g
       transform="matrix(1.8510236,0,0,-1.7550145,418.93655,590.17173)"
       id="g3598">
      <path
         sodipodi:nodetypes="cc"
         inkscape:connector-curvature="0"
         id="path3600"
         style="fill:none;stroke:#201d1c;stroke-width:1.87605965;stroke-linecap:butt;stroke-linejoin:miter;stroke-miterlimit:10;stroke-dasharray:none;stroke-opacity:1"
         d="M 0,0 14.809286,0" />
    </g>
    <text
       sodipodi:linespacing="125%"
       id="text6061"
       y="616.06824"
       x="405.07861"
       style="font-style:normal;font-weight:normal;font-size:40.00000381px;line-height:125%;font-family:sans-serif;text-align:center;letter-spacing:0px;word-spacing:0px;text-anchor:middle;fill:#000000;fill-opacity:1;stroke:none;stroke-width:1px;stroke-linecap:butt;stroke-linejoin:miter;stroke-opacity:1"
       xml:space="preserve"><tspan
         style="font-size:11.25px;text-align:center;text-anchor:middle"
         y="616.06824"
         x="405.07861"
         id="tspan6063"
         sodipodi:role="line">400\,m</tspan></text>
    <path
       style="display:inline;fill:none;fill-opacity:1;fill-rule:evenodd;stroke:#000000;stroke-width:1.5;stroke-linecap:butt;stroke-linejoin:miter;stroke-miterlimit:4;stroke-dasharray:8.99999979, 8.99999979;stroke-dashoffset:0;stroke-opacity:1"
       d="M 465.75232,446.39888 C 510,452.3622 480.36298,496.8516 504.55095,499.72659 l 33.77216,4.01417"
       id="path5893"
       inkscape:connector-curvature="0"
       sodipodi:nodetypes="csc" />
    <path
       style="display:inline;fill:none;fill-rule:evenodd;stroke:#000000;stroke-width:1.5;stroke-linecap:butt;stroke-linejoin:miter;stroke-miterlimit:4;stroke-dasharray:8.99999996, 8.99999996;stroke-dashoffset:0;stroke-opacity:1"
       d="m 517.75697,590.20171 c 42.24303,2.16049 84.25856,-8.86542 24.33257,-47.21362 -14.69729,-9.40518 19.67464,-36.73444 19.67464,-36.73444"
       id="path5897"
       inkscape:connector-curvature="0"
       sodipodi:nodetypes="csc" />
    <text
       xml:space="preserve"
       style="font-style:normal;font-weight:normal;font-size:40px;line-height:125%;font-family:sans-serif;text-align:center;letter-spacing:0px;word-spacing:0px;text-anchor:middle;display:inline;fill:#000000;fill-opacity:1;stroke:none;stroke-width:1px;stroke-linecap:butt;stroke-linejoin:miter;stroke-opacity:1"
       x="415.84995"
       y="413.06827"
       id="text5899"
       sodipodi:linespacing="125%"><tspan
         sodipodi:role="line"
         id="tspan5901"
         x="415.84995"
         y="413.06827"
         style="font-size:11.25px;text-align:center;text-anchor:middle">f=75\,mm</tspan></text>
    <text
       xml:space="preserve"
       style="font-style:normal;font-weight:normal;font-size:40px;line-height:125%;font-family:sans-serif;text-align:center;letter-spacing:0px;word-spacing:0px;text-anchor:middle;display:inline;fill:#000000;fill-opacity:1;stroke:none;stroke-width:1px;stroke-linecap:butt;stroke-linejoin:miter;stroke-opacity:1"
       x="490.84995"
       y="633.0683"
       id="text5899-2"
       sodipodi:linespacing="125%"><tspan
         sodipodi:role="line"
         id="tspan5901-8"
         x="490.84995"
         y="633.0683"
         style="font-size:11.25px;text-align:center;text-anchor:middle">f=50\,mm</tspan></text>
    <text
       xml:space="preserve"
       style="font-style:normal;font-weight:normal;font-size:40px;line-height:125%;font-family:sans-serif;text-align:center;letter-spacing:0px;word-spacing:0px;text-anchor:middle;display:inline;fill:#000000;fill-opacity:1;stroke:none;stroke-width:1px;stroke-linecap:butt;stroke-linejoin:miter;stroke-opacity:1"
       x="265.44101"
       y="486.61566"
       id="text5931-8"
       sodipodi:linespacing="125%"><tspan
         sodipodi:role="line"
         id="tspan5933-3"
         x="265.44101"
         y="486.61566"
         style="font-size:11.25px;text-align:center;text-anchor:middle">Polarisator</tspan></text>
    <text
       xml:space="preserve"
       style="font-style:normal;font-weight:normal;font-size:52.26613235px;line-height:125%;font-family:sans-serif;text-align:center;letter-spacing:0px;word-spacing:0px;text-anchor:middle;display:inline;fill:#000000;fill-opacity:1;stroke:none;stroke-width:1px;stroke-linecap:butt;stroke-linejoin:miter;stroke-opacity:1"
       x="306.67798"
       y="429.65042"
       id="text5931-0"
       sodipodi:linespacing="125%"><tspan
         sodipodi:role="line"
         id="tspan5933-2"
         x="306.67798"
         y="429.65042"
         style="font-size:14.69985008px;text-align:center;text-anchor:middle">Isolator</tspan></text>
    <text
       xml:space="preserve"
       style="font-style:normal;font-weight:normal;font-size:40px;line-height:125%;font-family:sans-serif;text-align:center;letter-spacing:0px;word-spacing:0px;text-anchor:middle;display:inline;fill:#000000;fill-opacity:1;stroke:none;stroke-width:1px;stroke-linecap:butt;stroke-linejoin:miter;stroke-opacity:1"
       x="456.10458"
       y="469.61563"
       id="text5931-89"
       sodipodi:linespacing="125%"><tspan
         sodipodi:role="line"
         id="tspan5933-4"
         x="456.10458"
         y="469.61563"
         style="font-size:11.25px;text-align:center;text-anchor:middle">PD\,2</tspan></text>
    <text
       xml:space="preserve"
       style="font-style:normal;font-weight:normal;font-size:40px;line-height:125%;font-family:sans-serif;text-align:center;letter-spacing:0px;word-spacing:0px;text-anchor:middle;display:inline;fill:#000000;fill-opacity:1;stroke:none;stroke-width:1px;stroke-linecap:butt;stroke-linejoin:miter;stroke-opacity:1"
       x="516.14856"
       y="580.61566"
       id="text5931-89-0"
       sodipodi:linespacing="125%"><tspan
         sodipodi:role="line"
         id="tspan5933-4-9"
         x="516.14856"
         y="580.61566"
         style="font-size:11.25px;text-align:center;text-anchor:middle">PD\,1</tspan></text>
    <path
       style="display:inline;fill:none;fill-rule:evenodd;stroke:#000000;stroke-width:1.5;stroke-linecap:butt;stroke-linejoin:miter;stroke-miterlimit:4;stroke-dasharray:none;stroke-opacity:1"
       d="m 287.1201,444.61503 18.29315,0 0,6.53326 6.53327,-6.53326 -6.53327,-6.50993 0,6.50993"
       id="path6017"
       inkscape:connector-curvature="0"
       sodipodi:nodetypes="cccccc" />
    <path
       style="display:inline;fill:none;fill-rule:evenodd;stroke:#000000;stroke-width:1.5;stroke-linecap:butt;stroke-linejoin:miter;stroke-miterlimit:4;stroke-dasharray:none;stroke-opacity:1"
       d="m 311.94652,444.61503 13.06653,0"
       id="path6019"
       inkscape:connector-curvature="0" />
    <path
       style="display:inline;fill:none;fill-rule:evenodd;stroke:#000000;stroke-width:1.5;stroke-linecap:butt;stroke-linejoin:miter;stroke-miterlimit:4;stroke-dasharray:none;stroke-opacity:1"
       d="m 312.59984,436.79844 0,15.69151"
       id="path6021"
       inkscape:connector-curvature="0"
       sodipodi:nodetypes="cc" />
    <path
       sodipodi:nodetypes="cc"
       inkscape:connector-curvature="0"
       id="path3600-1"
       style="display:inline;fill:none;stroke:#201d1c;stroke-width:3.38137221;stroke-linecap:butt;stroke-linejoin:miter;stroke-miterlimit:10;stroke-dasharray:none;stroke-opacity:1"
       d="m 443.96949,590.0683 73.02239,0" />
    <path
       sodipodi:open="true"
       d="m 509.50649,586.20578 a 7.4999995,7.4999986 0 0 1 10.45789,-1.74197 7.4999995,7.4999986 0 0 1 1.75108,10.45637 7.4999995,7.4999986 0 0 1 -10.45485,1.76019 7.4999995,7.4999986 0 0 1 -1.76928,-10.45331"
       sodipodi:end="3.7588883"
       sodipodi:start="3.7623714"
       sodipodi:ry="7.4999986"
       sodipodi:rx="7.4999995"
       sodipodi:cy="590.5683"
       sodipodi:cx="515.60718"
       sodipodi:type="arc"
       id="path5629-9"
       style="display:inline;fill:#ff0000;fill-opacity:1;fill-rule:nonzero;stroke-linejoin:round" />
    <rect
       style="display:inline;opacity:1;fill:#ffffff;fill-opacity:1;fill-rule:nonzero;stroke:#000000;stroke-width:1;stroke-linejoin:round;stroke-miterlimit:4;stroke-dasharray:none;stroke-dashoffset:0;stroke-opacity:1"
       id="rect6065"
       width="134"
       height="74"
       x="531.10718"
       y="411.56827" />
    <path
       style="display:inline;opacity:1;fill:#ff0000;fill-opacity:1;fill-rule:nonzero;stroke:none;stroke-width:1;stroke-linejoin:round;stroke-miterlimit:4;stroke-dasharray:none;stroke-dashoffset:0;stroke-opacity:1"
       id="path6078"
       sodipodi:type="arc"
       sodipodi:cx="561.60718"
       sodipodi:cy="506.06827"
       sodipodi:rx="5"
       sodipodi:ry="5"
       sodipodi:start="3.7623714"
       sodipodi:end="3.7588807"
       sodipodi:open="true"
       d="m 557.54005,503.15992 a 5,5 0 0 1 6.97192,-1.16132 5,5 0 0 1 1.16741,6.97091 5,5 0 0 1 -6.96989,1.17349 5,5 0 0 1 -1.17957,-6.96886" />
    <path
       style="display:inline;opacity:1;fill:#0000ff;fill-opacity:1;fill-rule:nonzero;stroke:none;stroke-width:1;stroke-linejoin:round;stroke-miterlimit:4;stroke-dasharray:none;stroke-dashoffset:0;stroke-opacity:1"
       id="path6078-6"
       sodipodi:type="arc"
       sodipodi:cx="539.60718"
       sodipodi:cy="506.06827"
       sodipodi:rx="5"
       sodipodi:ry="5"
       sodipodi:start="3.7623714"
       sodipodi:end="3.7588807"
       sodipodi:open="true"
       d="m 535.54005,503.15992 a 5,5 0 0 1 6.97192,-1.16132 5,5 0 0 1 1.16741,6.97091 5,5 0 0 1 -6.96989,1.17349 5,5 0 0 1 -1.17957,-6.96886" />
    <path
       style="display:inline;fill:none;fill-rule:evenodd;stroke:#ff0000;stroke-width:2;stroke-linecap:butt;stroke-linejoin:miter;stroke-miterlimit:4;stroke-dasharray:none;stroke-opacity:1"
       d="m 531.61729,473.3404 c 25,0 33.33503,-99.06298 53.33503,-35.16937 20,63.89361 78.68527,25.90726 78.68527,25.90726"
       id="path6107"
       inkscape:connector-curvature="0"
       sodipodi:nodetypes="csc" />
    <path
       style="display:inline;fill:none;fill-rule:evenodd;stroke:#0000ff;stroke-width:2;stroke-linecap:butt;stroke-linejoin:miter;stroke-miterlimit:4;stroke-dasharray:none;stroke-opacity:1"
       d="m 530.60713,481.07319 73.48477,0 c 0,0 -2.07106,-111.12935 2.92894,-52.32206 5,58.80729 -2.19873,48.13909 37.72842,50.88671 l 20.85787,1.43535"
       id="path6109"
       inkscape:connector-curvature="0"
       sodipodi:nodetypes="ccssc" />
    <path
       style="display:inline;opacity:1;fill:#999999;fill-opacity:1;fill-rule:nonzero;stroke:none;stroke-width:0.667;stroke-linejoin:round;stroke-miterlimit:4;stroke-dasharray:none;stroke-opacity:1"
       id="path5844"
       sodipodi:type="arc"
       sodipodi:cx="414.60715"
       sodipodi:cy="445.5683"
       sodipodi:rx="5"
       sodipodi:ry="27.499998"
       sodipodi:start="3.7623714"
       sodipodi:end="3.7588807"
       sodipodi:open="true"
       d="m 410.54002,429.57241 a 5,27.499998 0 0 1 6.97192,-6.38727 5,27.499998 0 0 1 1.16741,38.33998 5,27.499998 0 0 1 -6.96989,6.45419 5,27.499998 0 0 1 -1.17957,-38.32872" />
    <path
       style="display:inline;opacity:1;fill:#999999;fill-opacity:1;fill-rule:nonzero;stroke:none;stroke-width:0.667;stroke-linejoin:round;stroke-miterlimit:4;stroke-dasharray:none;stroke-opacity:1"
       id="path5844-8"
       sodipodi:type="arc"
       sodipodi:cx="484.60715"
       sodipodi:cy="590.0683"
       sodipodi:rx="5"
       sodipodi:ry="27.499998"
       sodipodi:start="3.7623714"
       sodipodi:end="3.7588807"
       sodipodi:open="true"
       d="m 480.54002,574.07241 a 5,27.499998 0 0 1 6.97192,-6.38727 5,27.499998 0 0 1 1.16741,38.33998 5,27.499998 0 0 1 -6.96989,6.45419 5,27.499998 0 0 1 -1.17957,-38.32872" />
    <text
       xml:space="preserve"
       style="font-style:normal;font-weight:normal;font-size:11.25px;line-height:125%;font-family:sans-serif;text-align:center;letter-spacing:0px;word-spacing:0px;text-anchor:middle;fill:#000000;fill-opacity:1;stroke:none;stroke-width:1px;stroke-linecap:butt;stroke-linejoin:miter;stroke-opacity:1"
       x="222.71429"
       y="412.21936"
       id="text8821"
       sodipodi:linespacing="125%"><tspan
         sodipodi:role="line"
         id="tspan8823"
         x="222.71429"
         y="412.21936">$\lambda$/2-Platte</tspan></text>
    <text
       sodipodi:linespacing="125%"
       id="text6061-7"
       y="503.14993"
       x="405.06638"
       style="font-style:normal;font-weight:normal;font-size:40.00000381px;line-height:125%;font-family:sans-serif;text-align:center;letter-spacing:0px;word-spacing:0px;text-anchor:middle;fill:#000000;fill-opacity:1;stroke:none;stroke-width:1px;stroke-linecap:butt;stroke-linejoin:miter;stroke-opacity:1"
       xml:space="preserve"><tspan
         style="font-size:11.25px;text-align:center;text-anchor:middle"
         y="503.14993"
         x="405.06638"
         sodipodi:role="line"
         id="tspan4262">Dispersive</tspan></text>
    <text
       xml:space="preserve"
       style="font-style:normal;font-weight:normal;font-size:40px;line-height:125%;font-family:sans-serif;text-align:center;letter-spacing:0px;word-spacing:0px;text-anchor:middle;display:inline;fill:#000000;fill-opacity:1;stroke:none;stroke-width:1px;stroke-linecap:butt;stroke-linejoin:miter;stroke-opacity:1"
       x="631.8075"
       y="535.79199"
       id="text5899-2-8"
       sodipodi:linespacing="125%"><tspan
         sodipodi:role="line"
         id="tspan5901-8-8"
         x="631.8075"
         y="535.79199"
         style="font-size:11.25px;text-align:center;text-anchor:middle">Echtzeit</tspan></text>
    <text
       sodipodi:linespacing="125%"
       id="text6061-7-9"
       y="521.96313"
       x="405.03928"
       style="font-style:normal;font-weight:normal;font-size:40.00000381px;line-height:125%;font-family:sans-serif;text-align:center;letter-spacing:0px;word-spacing:0px;text-anchor:middle;fill:#000000;fill-opacity:1;stroke:none;stroke-width:1px;stroke-linecap:butt;stroke-linejoin:miter;stroke-opacity:1"
       xml:space="preserve"><tspan
         style="font-size:11.25px;text-align:center;text-anchor:middle"
         y="521.96313"
         x="405.03928"
         sodipodi:role="line"
         id="tspan4262-7">Faser</tspan></text>
    <text
       xml:space="preserve"
       style="font-style:normal;font-weight:normal;font-size:40px;line-height:125%;font-family:sans-serif;text-align:center;letter-spacing:0px;word-spacing:0px;text-anchor:middle;display:inline;fill:#000000;fill-opacity:1;stroke:none;stroke-width:1px;stroke-linecap:butt;stroke-linejoin:miter;stroke-opacity:1"
       x="634.13135"
       y="552.56976"
       id="text5899-2-8-7"
       sodipodi:linespacing="125%"><tspan
         sodipodi:role="line"
         x="634.13135"
         y="552.56976"
         style="font-size:11.25px;text-align:center;text-anchor:middle"
         id="tspan4302">Oszilloskop</tspan></text>
    <text
       xml:space="preserve"
       style="font-style:normal;font-weight:normal;font-size:11.25px;line-height:125%;font-family:sans-serif;text-align:center;letter-spacing:0px;word-spacing:0px;text-anchor:middle;fill:#000000;fill-opacity:1;stroke:none;stroke-width:1px;stroke-linecap:butt;stroke-linejoin:miter;stroke-opacity:1"
       x="633.93164"
       y="570.85443"
       id="text4222"
       sodipodi:linespacing="125%"><tspan
         sodipodi:role="line"
         id="tspan4224"
         x="633.93164"
         y="570.85443"
         style="font-size:11.25px">\footnotesize{(min. 25\,GSa/s)}</tspan></text>
  </g>
</svg>
